<svg width="512" height="811" viewBox="0 0 512 811" fill="none" xmlns="http://www.w3.org/2000/svg">
<path d="M50 104H462V736C462 752 449 765 433 765H79C63 765 50 752 50 736V104Z" fill="url(#paint0_linear_7_57)"/>
<path d="M18 82C87 82 126 62 166 30C217 -10 295 -10 346 30C386 62 425 82 494 82L476 113H36L18 82Z" fill="url(#paint1_linear_7_57)"/>
<path opacity="0.42" d="M49 112C113 112 149 95 189 65C229 35 283 35 323 65C363 95 399 112 463 112L453 127H59L49 112Z" fill="#6B431F"/>
<path opacity="0.52" d="M115 130H76C74.8954 130 74 130.895 74 132V535C74 536.105 74.8954 537 76 537H115C116.105 537 117 536.105 117 535V132C117 130.895 116.105 130 115 130Z" fill="#7A4D25"/>
<path opacity="0.52" d="M436 130H397C395.895 130 395 130.895 395 132V535C395 536.105 395.895 537 397 537H436C437.105 537 438 536.105 438 535V132C438 130.895 437.105 130 436 130Z" fill="#7A4D25"/>
<path d="M140 136C140 136 152.951 136 161.25 136C169.549 136 174.201 136 182.5 136C190.896 136 195.604 136 204 136C215.716 136 222.284 136 234 136C287.892 136 372 136 372 136V536H140C140 536 140 378.755 140 278C140 260.817 140 251.183 140 234C140 220.332 140 212.668 140 199C140 186.698 140 179.802 140 167.5C140 155.198 140 136 140 136Z" fill="url(#paint2_linear_7_57)"/>
<path opacity="0.34" d="M178 175H334V500H178V175Z" fill="#2A1D14"/>
<path d="M0 134L140 152V524L0 552V134Z" fill="url(#paint3_linear_7_57)"/>
<path opacity="0.42" d="M22 165L118 178V494L22 513V165Z" fill="#8B5A2D"/>
<path d="M512 134L372 152V524L512 552V134Z" fill="url(#paint4_linear_7_57)"/>
<path opacity="0.42" d="M490 165L394 178V494L490 513V165Z" fill="#8B5A2D"/>
<path d="M74 536C140 557 220 553 256 536C292 553 372 557 438 536V576H74V536Z" fill="#6E431F"/>
<path d="M86 576H254V748H86V576Z" fill="url(#paint5_linear_7_57)"/>
<path d="M258 576H426V748H258V576Z" fill="url(#paint6_linear_7_57)"/>
<path d="M141 639C141 611 162 594 190 594C218 594 239 611 239 639V693C239 720 218 735 190 735C162 735 141 720 141 693V639Z" fill="#825229"/>
<path d="M371 639C371 611 350 594 322 594C294 594 273 611 273 639V693C273 720 294 735 322 735C350 735 371 720 371 693V639Z" fill="#825229"/>
<path opacity="0.36" d="M162 642C162 625 173 615 190 615C207 615 218 625 218 642V689C218 706 207 714 190 714C173 714 162 706 162 689V642Z" fill="#A06C38"/>
<path opacity="0.36" d="M350 642C350 625 339 615 322 615C305 615 294 625 294 642V689C294 706 305 714 322 714C339 714 350 706 350 689V642Z" fill="#A06C38"/>
<path d="M28 750H484L462 794H50L28 750Z" fill="url(#paint7_linear_7_57)"/>
<path d="M62 790C69 774 89 769 110 779C104 800 89 811 63 811H46L62 790Z" fill="#4D2F17"/>
<path d="M450 790C443 774 423 769 402 779C408 800 423 811 449 811H466L450 790Z" fill="#4D2F17"/>
<path opacity="0.72" d="M251 650.5C251 649.119 249.881 648 248.5 648C247.119 648 246 649.119 246 650.5V695.5C246 696.881 247.119 698 248.5 698C249.881 698 251 696.881 251 695.5V650.5Z" fill="#2F2118"/>
<path opacity="0.72" d="M266 650.5C266 649.119 264.881 648 263.5 648C262.119 648 261 649.119 261 650.5V695.5C261 696.881 262.119 698 263.5 698C264.881 698 266 696.881 266 695.5V650.5Z" fill="#2F2118"/>
<path opacity="0.72" d="M248.5 710.5C250.985 710.5 253 708.485 253 706C253 703.515 250.985 701.5 248.5 701.5C246.015 701.5 244 703.515 244 706C244 708.485 246.015 710.5 248.5 710.5Z" fill="#2F2118"/>
<path opacity="0.72" d="M263.5 710.5C265.985 710.5 268 708.485 268 706C268 703.515 265.985 701.5 263.5 701.5C261.015 701.5 259 703.515 259 706C259 708.485 261.015 710.5 263.5 710.5Z" fill="#2F2118"/>
<path d="M176.675 233.349C168.795 235.677 161.758 237.574 155.603 243.266C150.041 248.408 145.272 256.565 141 270.687V234.095C143.456 220.963 150.126 214.485 156.115 211.255C159.135 209.626 162.006 208.812 164.121 208.404C165.177 208.201 166.042 208.099 166.637 208.049C166.716 208.042 166.79 208.039 166.859 208.034L176.675 233.349ZM209.977 192.184C209.234 192.484 208.279 192.898 207.162 193.445C204.428 194.785 200.72 196.917 196.807 200.099C189.489 206.048 181.46 215.661 177.741 230.566L168.534 206.822C168.535 206.81 168.535 206.798 168.535 206.785C168.54 206.634 168.552 206.405 168.573 206.108C168.616 205.515 168.703 204.648 168.877 203.576C169.226 201.43 169.924 198.469 171.32 195.224C174.062 188.852 179.501 181.37 190.346 176.778L209.977 192.184ZM166.105 206.091C165.484 206.154 164.682 206.259 163.743 206.439C161.477 206.876 158.404 207.749 155.166 209.495C149.928 212.32 144.323 217.402 141 226.468V199.179C143.401 192.601 147.872 189.323 151.766 187.671C153.736 186.835 155.56 186.416 156.89 186.207C157.479 186.114 157.97 186.064 158.329 186.036L166.105 206.091ZM188.558 175.375C177.823 180.232 172.305 187.877 169.483 194.434C168.103 197.642 167.37 200.587 166.979 202.813L160.028 184.886C160.047 184.768 160.072 184.609 160.106 184.413C160.19 183.942 160.323 183.259 160.523 182.423C160.924 180.748 161.587 178.467 162.637 176.045C164.686 171.315 168.139 166.194 173.836 163.822L188.558 175.375ZM157.577 184.097C157.282 184.129 156.948 184.173 156.579 184.23C155.127 184.459 153.139 184.915 150.984 185.829C147.571 187.277 143.746 189.878 141 194.506V167.788C142.048 166.146 142.772 164.887 143.325 163.97C143.928 162.97 144.293 162.448 144.658 162.128C144.966 161.859 145.322 161.694 146.035 161.602C146.688 161.517 147.547 161.503 148.815 161.501L157.577 184.097ZM231.392 137C221.52 146.006 215.576 153.576 212.5 161.839C209.441 170.057 209.263 178.844 210.686 190.197L191.5 175.143C191.501 166.327 191.538 161.059 193.143 155.874C194.748 150.684 197.952 145.511 204.494 137H231.392ZM172.062 162.431C166.283 165.243 162.824 170.579 160.801 175.25C159.795 177.572 159.13 179.764 158.701 181.463L150.489 160.284C150.336 157.526 151.937 155.06 153.776 153.183C154.696 152.244 155.634 151.495 156.345 150.979C156.57 150.816 156.771 150.678 156.94 150.564L172.062 162.431ZM201.975 137C196.023 144.837 192.868 149.998 191.232 155.283C189.627 160.471 189.51 165.719 189.501 173.573L175 162.194C175.002 157.845 175.042 154.739 176.026 151.166C177.025 147.541 179.018 143.379 183.052 137H201.975ZM148.041 159.506C147.139 159.514 146.395 159.537 145.777 159.617C144.803 159.743 144.034 160.017 143.342 160.622C142.707 161.177 142.196 161.968 141.612 162.937C141.423 163.25 141.221 163.59 141 163.963V141.345L148.041 159.506ZM180.691 137C177.053 142.862 175.114 146.95 174.099 150.635C173.166 154.019 173.026 157.02 173.005 160.628L157.788 148.688C157.777 148.664 157.763 148.639 157.75 148.61C157.671 148.442 157.562 148.185 157.453 147.855C157.234 147.194 157.017 146.247 157.031 145.12C157.058 142.965 157.929 139.999 161.603 137H180.691ZM155.294 149.272C155.254 149.301 155.213 149.33 155.171 149.36C154.397 149.922 153.367 150.744 152.349 151.783C151.106 153.051 149.818 154.709 149.085 156.664L142.25 139.037L155.294 149.272ZM157.865 148.839V148.84C157.865 148.84 157.864 148.839 157.863 148.837H157.864L157.865 148.839ZM158.651 137C155.898 139.867 155.06 142.747 155.031 145.096C155.025 145.631 155.061 146.133 155.122 146.595L142.895 137H158.651Z" stroke="white" stroke-width="2"/>
<defs>
<linearGradient id="paint0_linear_7_57" x1="74" y1="2" x2="438" y2="798" gradientUnits="userSpaceOnUse">
<stop stop-color="#A87542"/>
<stop offset="1" stop-color="#62401F"/>
</linearGradient>
<linearGradient id="paint1_linear_7_57" x1="74" y1="1.99999" x2="438" y2="798" gradientUnits="userSpaceOnUse">
<stop stop-color="#A87542"/>
<stop offset="1" stop-color="#62401F"/>
</linearGradient>
<linearGradient id="paint2_linear_7_57" x1="154" y1="140" x2="358" y2="536" gradientUnits="userSpaceOnUse">
<stop stop-color="#392617"/>
<stop offset="1" stop-color="#1F1712"/>
</linearGradient>
<linearGradient id="paint3_linear_7_57" x1="3.8216e-06" y1="142" x2="142" y2="538" gradientUnits="userSpaceOnUse">
<stop stop-color="#B8844E"/>
<stop offset="1" stop-color="#704824"/>
</linearGradient>
<linearGradient id="paint4_linear_7_57" x1="370" y1="142" x2="512" y2="538" gradientUnits="userSpaceOnUse">
<stop stop-color="#B8844E"/>
<stop offset="1" stop-color="#704824"/>
</linearGradient>
<linearGradient id="paint5_linear_7_57" x1="126" y1="140" x2="386" y2="745" gradientUnits="userSpaceOnUse">
<stop stop-color="#B8844E"/>
<stop offset="1" stop-color="#704824"/>
</linearGradient>
<linearGradient id="paint6_linear_7_57" x1="126" y1="140" x2="386" y2="745" gradientUnits="userSpaceOnUse">
<stop stop-color="#B8844E"/>
<stop offset="1" stop-color="#704824"/>
</linearGradient>
<linearGradient id="paint7_linear_7_57" x1="26" y1="540" x2="486" y2="810" gradientUnits="userSpaceOnUse">
<stop stop-color="#744820"/>
<stop offset="1" stop-color="#4D2F17"/>
</linearGradient>
</defs>
</svg>
