<svg width="720" height="720" viewBox="0 0 720 720" fill="none" xmlns="http://www.w3.org/2000/svg">
  <title>Minimal vintage nightstand with closed drawers</title>
  <desc>A clean no-outline SVG illustration of a vintage wooden nightstand with two matching closed drawers.</desc>
  <defs>
    <linearGradient id="body" x1="205" y1="112" x2="515" y2="640" gradientUnits="userSpaceOnUse">
      <stop stop-color="#A87542"/>
      <stop offset="1" stop-color="#62401F"/>
    </linearGradient>
    <linearGradient id="panel" x1="240" y1="220" x2="480" y2="590" gradientUnits="userSpaceOnUse">
      <stop stop-color="#B8844E"/>
      <stop offset="1" stop-color="#704824"/>
    </linearGradient>
    <linearGradient id="darkWood" x1="175" y1="500" x2="545" y2="650" gradientUnits="userSpaceOnUse">
      <stop stop-color="#744820"/>
      <stop offset="1" stop-color="#4D2F17"/>
    </linearGradient>
  </defs>
<g>
    <path d="M190 176H530V584C530 604 514 620 494 620H226C206 620 190 604 190 584V176Z" fill="url(#body)"/>
    <path d="M165 154H555L536 196H184L165 154Z" fill="url(#darkWood)"/>
    <path d="M185 193C242 205 306 205 360 192C414 205 478 205 535 193V226H185V193Z" fill="#6E431F"/>

    <path d="M214 226H506V370H214V226Z" fill="url(#panel)"/>
    <path d="M266 266C266 240 288 225 318 225H402C432 225 454 240 454 266V324C454 350 432 366 402 366H318C288 366 266 350 266 324V266Z" fill="#825229"/>
    <path d="M296 274C296 258 307 249 323 249H397C413 249 424 258 424 274V316C424 332 413 341 397 341H323C307 341 296 332 296 316V274Z" fill="#A06C38" opacity="0.36"/>
    <rect x="354" y="292" width="12" height="34" rx="6" fill="#2F2118" opacity="0.72"/>
    <circle cx="360" cy="334" r="7" fill="#2F2118" opacity="0.72"/>

    <path d="M214 438H506V582H214V438Z" fill="url(#panel)"/>
    <path d="M266 478C266 452 288 437 318 437H402C432 437 454 452 454 478V536C454 562 432 578 402 578H318C288 578 266 562 266 536V478Z" fill="#825229"/>
    <path d="M296 486C296 470 307 461 323 461H397C413 461 424 470 424 486V528C424 544 413 553 397 553H323C307 553 296 544 296 528V486Z" fill="#A06C38" opacity="0.36"/>
    <rect x="354" y="504" width="12" height="34" rx="6" fill="#2F2118" opacity="0.72"/>
    <circle cx="360" cy="546" r="7" fill="#2F2118" opacity="0.72"/>

    <path d="M178 606H542L522 642H198L178 606Z" fill="url(#darkWood)"/>
    <path d="M215 638C221 624 238 620 254 629C250 649 237 660 216 660H202L215 638Z" fill="#4D2F17"/>
    <path d="M505 638C499 624 482 620 466 629C470 649 483 660 504 660H518L505 638Z" fill="#4D2F17"/>

    <rect x="214" y="218" width="34" height="390" rx="2" fill="#7A4D25" opacity="0.42"/>
    <rect x="472" y="218" width="34" height="390" rx="2" fill="#7A4D25" opacity="0.42"/>
  </g>
</svg>
